# File created by Blade
# Date/Time:  Thu Jan 22 16:16:06 2015
# Frame Rate: 120.000 fps
#------------------------------------------------------
:FULLY-SPECIFIED
:DEGREES
429
root 0.223726 34.409059 -5.575629 50.005753 -34.835010 -2.276496
RightUpLeg -68.588123 -2.172879 -21.139121
RightLeg 7.407072 -0.000000 -0.000000
RightFoot 1.445956 -17.203672 25.647901
RightToeBase 14.700072 -0.000000 -0.000000
LeftUpLeg -39.174235 39.262883 -2.662739
LeftLeg -7.097139 -0.000000 0.000000
LeftFoot -1.812555 19.583427 -38.968755
LeftToeBase 12.017589 -0.000000 -0.000000
Spine 77.364175 -13.807377 -4.440408
RightShoulder 12.939563 16.657149 -36.505391
RightArm 62.562370 28.833764 37.778199
RightForeArm -1.850413 0.000000 26.570951
RightHand 9.970245 0.000000 -7.506487
RightHandThumb1 -24.326973 -0.000000 -32.862282
LeftShoulder 6.677598 -5.552059 45.680732
LeftArm 87.585317 -32.287058 -40.012784
LeftForeArm 65.569090 -0.000000 8.507831
LeftHand -10.410745 -0.000000 -7.462213
LeftHandThumb1 -26.253704 0.000000 33.147579
Head -6.557437 14.783830 7.916281
430
root 0.198547 34.403438 -5.584941 49.998295 -34.787570 -2.365877
RightUpLeg -68.746383 -2.073418 -21.084055
RightLeg 7.825649 -0.000000 -0.000000
RightFoot 1.240572 -17.140239 25.629584
RightToeBase 14.849812 -0.000000 -0.000000
LeftUpLeg -39.113908 39.344418 -2.532801
LeftLeg -7.103571 -0.000000 0.000000
LeftFoot -1.780186 19.596557 -38.950305
LeftToeBase 11.997874 -0.000000 -0.000000
Spine 77.367113 -13.747630 -4.517832
RightShoulder 12.948152 16.885152 -36.487658
RightArm 62.418649 28.522537 37.637784
RightForeArm -1.978369 -0.000000 26.594862
RightHand 9.838441 -0.000000 -7.639454
RightHandThumb1 -24.326973 -0.000000 -32.862282
LeftShoulder 6.729810 -5.620264 45.664799
LeftArm 87.421761 -32.114044 -39.969367
LeftForeArm 65.651576 -0.000000 8.586771
LeftHand -10.356883 -0.000000 -7.528405
LeftHandThumb1 -26.253704 0.000000 33.147579
Head -6.635443 14.952260 7.780104
431
root 0.168454 34.396617 -5.597384 50.006529 -34.747451 -2.487054
RightUpLeg -68.910451 -1.924078 -21.077051
RightLeg 8.235190 -0.000000 -0.000000
RightFoot 0.979781 -17.077800 25.812188
RightToeBase 15.016272 -0.000000 -0.000000
LeftUpLeg -38.982310 39.388311 -2.300704
LeftLeg -7.143828 -0.000000 0.000000
LeftFoot -1.793020 19.689956 -39.000458
LeftToeBase 12.040086 -0.000000 -0.000000
Spine 77.328032 -13.713491 -4.582755
RightShoulder 13.007195 16.913893 -36.520270
RightArm 62.482534 28.362676 37.578585
RightForeArm -2.008906 -0.000000 26.503060
RightHand 10.027555 -0.000000 -7.327739
RightHandThumb1 -24.326973 -0.000000 -32.862282
LeftShoulder 6.852217 -5.645912 45.512886
LeftArm 87.148504 -31.974309 -39.757464
LeftForeArm 65.706259 0.000000 8.713946
LeftHand -10.289460 -0.000000 -7.554137
LeftHandThumb1 -26.253704 0.000000 33.147579
Head -6.606558 14.975943 7.557618
432
root 0.138834 34.391132 -5.611393 49.995878 -34.727372 -2.604660
RightUpLeg -69.050306 -1.733270 -21.124974
RightLeg 8.626344 -0.000000 -0.000000
RightFoot 0.861957 -17.130607 25.743579
RightToeBase 14.866027 -0.000000 -0.000000
LeftUpLeg -38.908438 39.533191 -2.185194
LeftLeg -7.169873 -0.000000 0.000000
LeftFoot -1.692926 19.695819 -38.905991
LeftToeBase 12.011269 -0.000000 -0.000000
Spine 77.345055 -13.554193 -4.632212
RightShoulder 12.961814 16.708226 -36.560813
RightArm 62.574741 28.425772 37.584981
RightForeArm -2.039126 0.000000 26.604776
RightHand 9.968408 0.000000 -7.387881
RightHandThumb1 -24.326973 -0.000000 -32.862282
LeftShoulder 6.880075 -5.663540 45.551816
LeftArm 87.108261 -31.830261 -39.757965
LeftForeArm 65.837508 -0.000000 8.772226
LeftHand -10.228540 0.000000 -7.494672
LeftHandThumb1 -26.253704 0.000000 33.147579
Head -6.762115 15.180660 7.621922
